Coordinates
version=1
nRows=13
nColumns=36
inDegrees=yes

Units are S.I. units (second, meters, Newtons, ...)
If the header above contains a line with 'inDegrees', this indicates whether rotational values are in degrees (yes) or radians (no).

endheader
time	pelvis_tilt	pelvis_list	pelvis_rotation	pelvis_tx	pelvis_ty	pelvis_tz	hip_flexion_r	hip_adduction_r	hip_rotation_r	knee_angle_r	knee_angle_r_beta	ankle_angle_r	subtalar_angle_r	mtp_angle_r	hip_flexion_l	hip_adduction_l	hip_rotation_l	knee_angle_l	knee_angle_l_beta	ankle_angle_l	subtalar_angle_l	mtp_angle_l	lumbar_extension	lumbar_bending	lumbar_rotation	arm_flex_r	arm_add_r	arm_rot_r	elbow_flex_r	pro_sup_r	arm_flex_l	arm_add_l	arm_rot_l	elbow_flex_l	pro_sup_l
      2.53333330	    -15.35289699	     -1.37803511	     -1.94470658	      0.50902085	      0.63568436	      0.12319064	     77.87682595	      1.18690245	      4.73519235	     88.05286947	      1.53681249	     23.38737071	    -25.88025703	     -7.49999987	     78.42262623	     -6.37270769	      7.95161913	     91.50872923	      1.59712862	     28.52344289	     -9.34291921	     -7.49999987	    -40.76572605	     -3.70959345	     -2.41333961	     56.17737936	    -18.29139496	     21.01454281	    114.17370975	     91.10192699	     69.44465388	    -17.28582237	     27.29872894	    117.67303215	     79.70737391
      2.55000000	    -17.72024453	     -0.72938938	     -2.26514738	      0.52293234	      0.64036880	      0.11655163	     80.03778941	      0.72879760	      5.28932257	     88.84983276	      1.55072212	     23.70808850	    -25.53996493	     -7.49999987	     80.48019697	     -6.05540306	      7.22921605	     91.94317378	      1.60471111	     28.62901770	     -9.37252522	     -7.49999987	    -40.74565629	     -4.01783480	     -1.47496861	     55.42347071	    -17.03113293	     17.83925193	    112.69112258	     91.62613892	     66.86699798	    -16.05626540	     26.42776365	    117.40053817	     80.06696829
      2.56666670	    -19.91509663	     -0.25937062	     -2.25085962	      0.51466879	      0.61947388	      0.11958170	     83.39395231	     -0.09795506	      5.50010974	     90.52693933	      1.57999315	     24.21430321	    -24.90688607	     -7.49999987	     83.22106228	     -6.04404782	      6.70346673	     93.15177471	      1.62580517	     29.80334997	     -8.50268020	     -7.49999987	    -40.57716882	     -4.11933843	     -0.88854185	     55.80767699	    -16.20146527	     15.50636665	    113.50520899	     93.08424484	     66.68334153	    -15.34305912	     26.11939175	    117.44587331	     81.14344945
      2.58333330	    -21.88307556	     -0.15877374	     -1.82001272	      0.52000806	      0.61270143	      0.13561523	     86.49325301	     -0.32329705	      4.99174938	     92.45794556	      1.61369557	     24.75648574	    -24.78739698	     -7.49999987	     85.52033062	     -6.75310366	      6.72811846	     93.95218377	      1.63977495	     29.46833769	     -7.80168945	     -7.49999987	    -40.88788717	     -4.36253064	     -0.58109997	     55.14651499	    -15.24318475	     13.95143429	    115.26432891	     93.97572340	     67.35861054	    -16.25460235	     26.54845259	    117.90739446	     81.79008315
      2.60000000	    -23.95973175	      0.14958902	     -2.17697150	      0.51833392	      0.60820009	      0.13224344	     89.10948810	     -0.00611107	      4.77108767	     93.12025060	      1.62525497	     24.85881688	    -24.88953396	     -7.49999987	     87.89714593	     -7.76756988	      6.23418300	     94.29759286	      1.64580347	     29.41881126	     -6.95846280	     -7.49999987	    -40.74979260	     -4.85923250	     -0.10539247	     56.58214460	    -15.14528991	     13.20923542	    116.07607270	     94.88684521	     68.24881307	    -16.74874648	     26.74722189	    117.49597378	     82.62514183
      2.61666670	    -25.78335383	      0.40888287	     -2.35023530	      0.50762528	      0.59719514	      0.14905084	     92.36059988	      0.87339851	      4.37887084	     94.03228050	      1.64117290	     24.31495323	    -25.35446870	     -7.49999987	     90.70628177	     -9.40800182	      6.13515618	     94.65860018	      1.65210424	     29.42217386	     -5.93914697	     -7.49999987	    -40.73638909	     -6.15845733	      0.18245121	     58.19381921	    -14.41850771	     11.45356581	    117.46697100	     99.82422780	     71.59924587	    -16.97029852	     27.64919607	    115.62859710	     87.71329012
      2.63333330	    -27.24897506	      0.58824958	     -2.61592553	      0.51220693	      0.59986504	      0.13283821	     94.25616376	      0.91738317	      4.40168774	     94.03806566	      1.64127387	     24.16177374	    -24.74149289	     -7.49999987	     92.93572731	    -10.12140273	      5.44605913	     95.08775008	      1.65959432	     28.56668991	     -5.37983837	     -7.49999987	    -40.70979025	     -6.18363714	      0.04901235	     61.15986388	    -14.00671629	     11.72335260	    117.47750389	     98.73828871	     72.99865093	    -17.29714252	     28.25052261	    114.75322614	     87.37609486
      2.65000000	    -28.46100987	      0.82450182	     -2.79922432	      0.53017389	      0.60098875	      0.12952196	     95.03760675	      0.76745798	      4.72950784	     93.98979632	      1.64043141	     24.13405345	    -24.37325571	     -7.49999987	     93.55866033	    -10.74447671	      4.56886844	     94.92095427	      1.65668318	     29.32956215	     -4.53691760	     -7.49999987	    -40.66641881	     -5.99741822	     -0.06812988	     61.95913024	    -13.88606638	     12.07351245	    118.08880642	     98.98925212	     73.04005494	    -17.35034473	     28.41027003	    114.46383994	     87.64762930
      2.66666670	    -29.47525136	      0.71698024	     -2.99519738	      0.55829865	      0.60164585	      0.14904790	     94.17171132	      1.50742875	      4.35153062	     94.01783653	      1.64092080	     25.47021451	    -25.03811880	     -7.49999987	     92.67674492	    -12.34702109	      4.48695833	     94.81405127	      1.65481737	     30.08742589	     -3.73824424	     -7.49999987	    -40.08197559	     -6.29246555	      0.28812506	     59.83761216	    -13.12670263	     12.64413304	    119.84016932	     99.19829548	     71.81508843	    -17.94933291	     28.55989746	    115.37345238	     87.84270825
      2.68333330	    -30.98875086	      0.66648211	     -3.31582777	      0.54940977	      0.59837454	      0.15392910	     94.65431514	      2.57466366	      4.08800109	     93.98788173	      1.64039799	     25.82559601	    -25.60525381	     -7.49999987	     93.33599639	    -13.95055860	      4.19118988	     94.90451465	      1.65639626	     31.77886027	     -0.98113110	     -7.49999987	    -38.89746931	     -6.91037852	      0.56216124	     59.22267848	    -12.94763619	     12.40252318	    121.89011782	     99.71518520	     71.65458713	    -18.96659231	     28.09952559	    117.53581589	     88.39330779
      2.70000000	    -31.40564158	      0.67861025	     -3.38021221	      0.53404855	      0.60178819	      0.14732652	     95.32256400	      3.02512754	      4.09981795	     93.79117546	      1.63696482	     25.45634790	    -25.77375658	     -7.49999987	     93.67586852	    -14.33290665	      3.78792483	     94.40156816	      1.64761818	     31.30406933	     -1.15297943	     -7.49999987	    -38.76330968	     -7.21659301	      0.53964227	     60.81570201	    -13.17501351	     12.20227337	    121.40189914	    100.03458361	     73.32546076	    -19.18259716	     27.82855715	    117.24126061	     88.76240145
      2.71666670	    -32.28288652	      0.61133263	     -3.37004100	      0.56851206	      0.61036018	      0.16524908	     94.32060212	      4.19361351	      3.99964828	     92.98033571	      1.62281300	     25.75492057	    -26.99441485	     -7.49999987	     92.44139721	    -15.63309642	      3.69863803	     92.64952877	      1.61703933	     30.99166116	     -0.13020831	     -7.49999987	    -37.92927774	     -7.88418583	      1.02241846	     58.83271341	    -13.01967766	     10.93175623	    122.53571509	    104.57433830	     73.02038358	    -19.57048626	     27.84183794	    117.26506770	     93.14401847
      2.73333330	    -32.41163685	      0.90982508	     -3.30482569	      0.55232961	      0.62333405	      0.15416185	     92.72105483	      4.39664330	      4.49245975	     90.54350167	      1.58028222	     24.34268144	    -27.73502665	     -7.49999987	     91.26663255	    -15.51401956	      2.56168238	     91.07852911	      1.58962021	     30.46414439	      0.17966317	     -7.49999987	    -38.23448950	     -8.41014728	      0.72897840	     59.89873484	    -13.28872234	      9.69263744	    121.05669804	    100.53145884	     74.77653410	    -19.55226388	     28.04900173	    115.96819144	     90.58656459
